<svg xmlns="http://www.w3.org/2000/svg" width="468" height="432" viewBox="0 0 468 432">
  <defs>
    <style>
      .cls-1 {
        fill: #898989;
      }

      .cls-1, .cls-2 {
        fill-rule: evenodd;
      }

      .cls-2 {
        fill: #c69c6d;
      }
    </style>
  </defs>
  <path id="Rectangle_2_copy_700" data-name="Rectangle 2 copy 700" class="cls-1" d="M423,45V70H409V45h14Z"/>
  <path id="Rectangle_2_copy_701" data-name="Rectangle 2 copy 701" class="cls-1" d="M406,45V70H392V45h14Z"/>
  <path id="Rectangle_2_copy_702" data-name="Rectangle 2 copy 702" class="cls-1" d="M389,45V70H375V45h14Z"/>
  <path id="Rectangle_2_copy_703" data-name="Rectangle 2 copy 703" class="cls-1" d="M372,45V70H358V45h14Z"/>
  <path id="Rectangle_2_copy_704" data-name="Rectangle 2 copy 704" class="cls-1" d="M355,45V70H341V45h14Z"/>
  <path id="Rectangle_2_copy_705" data-name="Rectangle 2 copy 705" class="cls-1" d="M338,45V70H324V45h14Z"/>
  <path id="Rectangle_2_copy_706" data-name="Rectangle 2 copy 706" class="cls-1" d="M321,45V70H307V45h14Z"/>
  <path id="Rectangle_2_copy_707" data-name="Rectangle 2 copy 707" class="cls-1" d="M304,45V70H290V45h14Z"/>
  <path id="Rectangle_2_copy_708" data-name="Rectangle 2 copy 708" class="cls-1" d="M287,45V70H273V45h14Z"/>
  <path id="Rectangle_2_copy_709" data-name="Rectangle 2 copy 709" class="cls-1" d="M270,45V70H256V45h14Z"/>
  <path id="Rectangle_2_copy_710" data-name="Rectangle 2 copy 710" class="cls-1" d="M253,45V70H239V45h14Z"/>
  <path id="Rectangle_2_copy_711" data-name="Rectangle 2 copy 711" class="cls-1" d="M236,45V70H222V45h14Z"/>
  <path id="Rectangle_2_copy_712" data-name="Rectangle 2 copy 712" class="cls-1" d="M219,45V70H205V45h14Z"/>
  <path id="Rectangle_2_copy_713" data-name="Rectangle 2 copy 713" class="cls-1" d="M202,45V70H188V45h14Z"/>
  <path id="Rectangle_2_copy_714" data-name="Rectangle 2 copy 714" class="cls-1" d="M185,45V70H171V45h14Z"/>
  <path id="Rectangle_2_copy_715" data-name="Rectangle 2 copy 715" class="cls-1" d="M168,45V70H154V45h14Z"/>
  <path id="Rectangle_2_copy_716" data-name="Rectangle 2 copy 716" class="cls-1" d="M151,45V70H137V45h14Z"/>
  <path id="Rectangle_2_copy_717" data-name="Rectangle 2 copy 717" class="cls-1" d="M134,45V70H120V45h14Z"/>
  <path id="Rectangle_2_copy_718" data-name="Rectangle 2 copy 718" class="cls-1" d="M117,45V70H103V45h14Z"/>
  <path id="Rectangle_2_copy_719" data-name="Rectangle 2 copy 719" class="cls-1" d="M100,45V70H86V45h14Z"/>
  <path id="Rounded_Rectangle_3_copy_27" data-name="Rounded Rectangle 3 copy 27" class="cls-2" d="M84,135.706v28.588C84,171.311,80.866,177,77,177s-7-5.689-7-12.706V135.706C70,128.689,73.134,123,77,123S84,128.689,84,135.706Z"/>
  <path id="Rounded_Rectangle_3_copy_33" data-name="Rounded Rectangle 3 copy 33" class="cls-2" d="M404,135.706v28.588c0,7.017-3.134,12.706-7,12.706s-7-5.689-7-12.706V135.706c0-7.017,3.134-12.706,7-12.706S404,128.689,404,135.706Z"/>
  <path id="Rounded_Rectangle_3_copy_32" data-name="Rounded Rectangle 3 copy 32" class="cls-2" d="M389,158.118v13.764c0,3.379-3.134,6.118-7,6.118s-7-2.739-7-6.118V158.118c0-3.379,3.134-6.118,7-6.118S389,154.739,389,158.118Z"/>
  <path id="Rectangle_2_copy_720" data-name="Rectangle 2 copy 720" class="cls-1" d="M389,124v25H375V124h14Z"/>
  <path id="Rectangle_2_copy_721" data-name="Rectangle 2 copy 721" class="cls-1" d="M372,124v25H358V124h14Z"/>
  <path id="Rectangle_2_copy_722" data-name="Rectangle 2 copy 722" class="cls-1" d="M355,124v25H341V124h14Z"/>
  <path id="Rectangle_2_copy_723" data-name="Rectangle 2 copy 723" class="cls-1" d="M338,124v25H324V124h14Z"/>
  <path id="Rectangle_2_copy_724" data-name="Rectangle 2 copy 724" class="cls-1" d="M321,124v25H307V124h14Z"/>
  <path id="Rectangle_2_copy_725" data-name="Rectangle 2 copy 725" class="cls-1" d="M304,124v25H290V124h14Z"/>
  <path id="Rectangle_2_copy_726" data-name="Rectangle 2 copy 726" class="cls-1" d="M287,124v25H273V124h14Z"/>
  <path id="Rectangle_2_copy_727" data-name="Rectangle 2 copy 727" class="cls-1" d="M270,124v25H256V124h14Z"/>
  <path id="Rectangle_2_copy_728" data-name="Rectangle 2 copy 728" class="cls-1" d="M253,124v25H239V124h14Z"/>
  <path id="Rectangle_2_copy_729" data-name="Rectangle 2 copy 729" class="cls-1" d="M236,124v25H222V124h14Z"/>
  <path id="Rectangle_2_copy_730" data-name="Rectangle 2 copy 730" class="cls-1" d="M219,124v25H205V124h14Z"/>
  <path id="Rectangle_2_copy_731" data-name="Rectangle 2 copy 731" class="cls-1" d="M202,124v25H188V124h14Z"/>
  <path id="Rectangle_2_copy_732" data-name="Rectangle 2 copy 732" class="cls-1" d="M185,124v25H171V124h14Z"/>
  <path id="Rectangle_2_copy_733" data-name="Rectangle 2 copy 733" class="cls-1" d="M168,124v25H154V124h14Z"/>
  <path id="Rectangle_2_copy_734" data-name="Rectangle 2 copy 734" class="cls-1" d="M151,124v25H137V124h14Z"/>
  <path id="Rectangle_2_copy_735" data-name="Rectangle 2 copy 735" class="cls-1" d="M134,124v25H120V124h14Z"/>
  <path id="Rectangle_2_copy_736" data-name="Rectangle 2 copy 736" class="cls-1" d="M117,124v25H103V124h14Z"/>
  <path id="Rectangle_2_copy_737" data-name="Rectangle 2 copy 737" class="cls-1" d="M100,124v25H86V124h14Z"/>
  <path id="Rectangle_2_copy_739" data-name="Rectangle 2 copy 739" class="cls-1" d="M372,152v25H358V152h14Z"/>
  <path id="Rectangle_2_copy_740" data-name="Rectangle 2 copy 740" class="cls-1" d="M355,152v25H341V152h14Z"/>
  <path id="Rectangle_2_copy_741" data-name="Rectangle 2 copy 741" class="cls-1" d="M338,152v25H324V152h14Z"/>
  <path id="Rectangle_2_copy_742" data-name="Rectangle 2 copy 742" class="cls-1" d="M321,152v25H307V152h14Z"/>
  <path id="Rectangle_2_copy_743" data-name="Rectangle 2 copy 743" class="cls-1" d="M304,152v25H290V152h14Z"/>
  <path id="Rectangle_2_copy_744" data-name="Rectangle 2 copy 744" class="cls-1" d="M287,152v25H273V152h14Z"/>
  <path id="Rectangle_2_copy_745" data-name="Rectangle 2 copy 745" class="cls-1" d="M270,152v25H256V152h14Z"/>
  <path id="Rectangle_2_copy_746" data-name="Rectangle 2 copy 746" class="cls-1" d="M253,152v25H239V152h14Z"/>
  <path id="Rectangle_2_copy_747" data-name="Rectangle 2 copy 747" class="cls-1" d="M236,152v25H222V152h14Z"/>
  <path id="Rectangle_2_copy_748" data-name="Rectangle 2 copy 748" class="cls-1" d="M219,152v25H205V152h14Z"/>
  <path id="Rectangle_2_copy_749" data-name="Rectangle 2 copy 749" class="cls-1" d="M202,152v25H188V152h14Z"/>
  <path id="Rectangle_2_copy_750" data-name="Rectangle 2 copy 750" class="cls-1" d="M185,152v25H171V152h14Z"/>
  <path id="Rectangle_2_copy_751" data-name="Rectangle 2 copy 751" class="cls-1" d="M168,152v25H154V152h14Z"/>
  <path id="Rectangle_2_copy_752" data-name="Rectangle 2 copy 752" class="cls-1" d="M151,152v25H137V152h14Z"/>
  <path id="Rectangle_2_copy_753" data-name="Rectangle 2 copy 753" class="cls-1" d="M134,152v25H120V152h14Z"/>
  <path id="Rectangle_2_copy_754" data-name="Rectangle 2 copy 754" class="cls-1" d="M117,152v25H103V152h14Z"/>
  <path id="Rectangle_2_copy_755" data-name="Rectangle 2 copy 755" class="cls-1" d="M100,152v25H86V152h14Z"/>
  <path id="Rounded_Rectangle_3_copy_28" data-name="Rounded Rectangle 3 copy 28" class="cls-2" d="M84,240.706v28.588C84,276.311,80.866,282,77,282s-7-5.689-7-12.706V240.706C70,233.689,73.134,228,77,228S84,233.689,84,240.706Z"/>
  <path id="Rounded_Rectangle_3_copy_31" data-name="Rounded Rectangle 3 copy 31" class="cls-2" d="M336,240.706v28.588c0,7.017-3.134,12.706-7,12.706s-7-5.689-7-12.706V240.706c0-7.017,3.134-12.706,7-12.706S336,233.689,336,240.706Z"/>
  <path id="Rounded_Rectangle_3_copy_30" data-name="Rounded Rectangle 3 copy 30" class="cls-2" d="M321,263.118v13.764c0,3.379-3.134,6.118-7,6.118s-7-2.739-7-6.118V263.118c0-3.379,3.134-6.118,7-6.118S321,259.739,321,263.118Z"/>
  <path id="Rectangle_2_copy_756" data-name="Rectangle 2 copy 756" class="cls-1" d="M321,229v25H307V229h14Z"/>
  <path id="Rectangle_2_copy_757" data-name="Rectangle 2 copy 757" class="cls-1" d="M304,229v25H290V229h14Z"/>
  <path id="Rectangle_2_copy_758" data-name="Rectangle 2 copy 758" class="cls-1" d="M287,229v25H273V229h14Z"/>
  <path id="Rectangle_2_copy_759" data-name="Rectangle 2 copy 759" class="cls-1" d="M270,229v25H256V229h14Z"/>
  <path id="Rectangle_2_copy_760" data-name="Rectangle 2 copy 760" class="cls-1" d="M253,229v25H239V229h14Z"/>
  <path id="Rectangle_2_copy_761" data-name="Rectangle 2 copy 761" class="cls-1" d="M236,229v25H222V229h14Z"/>
  <path id="Rectangle_2_copy_762" data-name="Rectangle 2 copy 762" class="cls-1" d="M219,229v25H205V229h14Z"/>
  <path id="Rectangle_2_copy_763" data-name="Rectangle 2 copy 763" class="cls-1" d="M202,229v25H188V229h14Z"/>
  <path id="Rectangle_2_copy_764" data-name="Rectangle 2 copy 764" class="cls-1" d="M185,229v25H171V229h14Z"/>
  <path id="Rectangle_2_copy_765" data-name="Rectangle 2 copy 765" class="cls-1" d="M168,229v25H154V229h14Z"/>
  <path id="Rectangle_2_copy_766" data-name="Rectangle 2 copy 766" class="cls-1" d="M151,229v25H137V229h14Z"/>
  <path id="Rectangle_2_copy_767" data-name="Rectangle 2 copy 767" class="cls-1" d="M134,229v25H120V229h14Z"/>
  <path id="Rectangle_2_copy_768" data-name="Rectangle 2 copy 768" class="cls-1" d="M117,229v25H103V229h14Z"/>
  <path id="Rectangle_2_copy_769" data-name="Rectangle 2 copy 769" class="cls-1" d="M100,229v25H86V229h14Z"/>
  <path id="Rectangle_2_copy_771" data-name="Rectangle 2 copy 771" class="cls-1" d="M304,257v25H290V257h14Z"/>
  <path id="Rectangle_2_copy_772" data-name="Rectangle 2 copy 772" class="cls-1" d="M287,257v25H273V257h14Z"/>
  <path id="Rectangle_2_copy_773" data-name="Rectangle 2 copy 773" class="cls-1" d="M270,257v25H256V257h14Z"/>
  <path id="Rectangle_2_copy_774" data-name="Rectangle 2 copy 774" class="cls-1" d="M253,257v25H239V257h14Z"/>
  <path id="Rectangle_2_copy_775" data-name="Rectangle 2 copy 775" class="cls-1" d="M236,257v25H222V257h14Z"/>
  <path id="Rectangle_2_copy_776" data-name="Rectangle 2 copy 776" class="cls-1" d="M219,257v25H205V257h14Z"/>
  <path id="Rectangle_2_copy_777" data-name="Rectangle 2 copy 777" class="cls-1" d="M202,257v25H188V257h14Z"/>
  <path id="Rectangle_2_copy_778" data-name="Rectangle 2 copy 778" class="cls-1" d="M185,257v25H171V257h14Z"/>
  <path id="Rectangle_2_copy_779" data-name="Rectangle 2 copy 779" class="cls-1" d="M168,257v25H154V257h14Z"/>
  <path id="Rectangle_2_copy_780" data-name="Rectangle 2 copy 780" class="cls-1" d="M151,257v25H137V257h14Z"/>
  <path id="Rectangle_2_copy_781" data-name="Rectangle 2 copy 781" class="cls-1" d="M134,257v25H120V257h14Z"/>
  <path id="Rectangle_2_copy_782" data-name="Rectangle 2 copy 782" class="cls-1" d="M117,257v25H103V257h14Z"/>
  <path id="Rectangle_2_copy_783" data-name="Rectangle 2 copy 783" class="cls-1" d="M100,257v25H86V257h14Z"/>
  <path id="Rounded_Rectangle_3_copy_29" data-name="Rounded Rectangle 3 copy 29" class="cls-2" d="M84,340.118v13.764c0,3.379-3.134,6.118-7,6.118s-7-2.739-7-6.118V340.118c0-3.379,3.134-6.118,7-6.118S84,336.739,84,340.118Z"/>
  <path id="Rounded_Rectangle_3_copy_34" data-name="Rounded Rectangle 3 copy 34" class="cls-2" d="M268,340.118v13.764c0,3.379-3.134,6.118-7,6.118s-7-2.739-7-6.118V340.118c0-3.379,3.134-6.118,7-6.118S268,336.739,268,340.118Z"/>
  <path id="Rectangle_2_copy_784" data-name="Rectangle 2 copy 784" class="cls-1" d="M253,335v25H239V335h14Z"/>
  <path id="Rectangle_2_copy_785" data-name="Rectangle 2 copy 785" class="cls-1" d="M236,335v25H222V335h14Z"/>
  <path id="Rectangle_2_copy_786" data-name="Rectangle 2 copy 786" class="cls-1" d="M219,335v25H205V335h14Z"/>
  <path id="Rectangle_2_copy_787" data-name="Rectangle 2 copy 787" class="cls-1" d="M202,335v25H188V335h14Z"/>
  <path id="Rectangle_2_copy_788" data-name="Rectangle 2 copy 788" class="cls-1" d="M185,335v25H171V335h14Z"/>
  <path id="Rectangle_2_copy_789" data-name="Rectangle 2 copy 789" class="cls-1" d="M168,335v25H154V335h14Z"/>
  <path id="Rectangle_2_copy_790" data-name="Rectangle 2 copy 790" class="cls-1" d="M151,335v25H137V335h14Z"/>
  <path id="Rectangle_2_copy_791" data-name="Rectangle 2 copy 791" class="cls-1" d="M134,335v25H120V335h14Z"/>
  <path id="Rectangle_2_copy_792" data-name="Rectangle 2 copy 792" class="cls-1" d="M117,335v25H103V335h14Z"/>
  <path id="Rectangle_2_copy_793" data-name="Rectangle 2 copy 793" class="cls-1" d="M100,335v25H86V335h14Z"/>
</svg>
